<svg width="85" height="84" viewBox="0 0 85 84" fill="none" xmlns="http://www.w3.org/2000/svg">
<rect x="0.833984" width="84" height="84" rx="42" fill="url(#paint0_linear)"/>
<rect x="0.833984" width="84" height="84" rx="42" fill="url(#paint1_linear)"/>
<g filter="url(#filter0_d)">
<path d="M34.9731 64C34.9731 64 30.1953 64 30.1953 59.2222V25.7778C30.1953 25.7778 30.1953 21 34.9731 21H51.6953C51.6953 21 56.4731 21 56.4731 25.7778V59.2222C56.4731 59.2222 56.4731 64 51.6953 64H34.9731Z" fill="white"/>
<path d="M34.9731 64C34.9731 64 30.1953 64 30.1953 59.2222V25.7778C30.1953 25.7778 30.1953 21 34.9731 21H51.6953C51.6953 21 56.4731 21 56.4731 25.7778V59.2222C56.4731 59.2222 56.4731 64 51.6953 64H34.9731Z" fill="url(#paint2_linear)"/>
<path d="M34.9731 64C34.9731 64 30.1953 64 30.1953 59.2222V25.7778C30.1953 25.7778 30.1953 21 34.9731 21H51.6953C51.6953 21 56.4731 21 56.4731 25.7778V59.2222C56.4731 59.2222 56.4731 64 51.6953 64H34.9731Z" fill="url(#paint3_linear)"/>
<path d="M32.8594 26.9539H54.3594V58.0094H32.8594V26.9539Z" fill="#BFE4FE"/>
</g>
<defs>
<filter id="filter0_d" x="15.834" y="21" width="55" height="58" filterUnits="userSpaceOnUse" color-interpolation-filters="sRGB">
<feFlood flood-opacity="0" result="BackgroundImageFix"/>
<feColorMatrix in="SourceAlpha" type="matrix" values="0 0 0 0 0 0 0 0 0 0 0 0 0 0 0 0 0 0 127 0"/>
<feOffset dy="9"/>
<feGaussianBlur stdDeviation="3"/>
<feColorMatrix type="matrix" values="0 0 0 0 0 0 0 0 0 0 0 0 0 0 0 0 0 0 0.0693564 0"/>
<feBlend mode="normal" in2="BackgroundImageFix" result="effect1_dropShadow"/>
<feBlend mode="normal" in="SourceGraphic" in2="effect1_dropShadow" result="shape"/>
</filter>
<linearGradient id="paint0_linear" x1="0.833984" y1="0" x2="0.833984" y2="84" gradientUnits="userSpaceOnUse">
<stop stop-color="#FF9A49"/>
<stop offset="1" stop-color="#FFD749"/>
</linearGradient>
<linearGradient id="paint1_linear" x1="0.833984" y1="0" x2="0.833984" y2="84" gradientUnits="userSpaceOnUse">
<stop stop-color="#C0E5FE"/>
<stop offset="0.999426" stop-color="#59B6F5"/>
</linearGradient>
<linearGradient id="paint2_linear" x1="30.1953" y1="21" x2="30.1953" y2="64" gradientUnits="userSpaceOnUse">
<stop stop-color="#FEE795"/>
<stop offset="0.44838" stop-color="#FFFCF1"/>
<stop offset="0.9997" stop-color="#FFD86E"/>
</linearGradient>
<linearGradient id="paint3_linear" x1="30.1953" y1="21" x2="30.1953" y2="64" gradientUnits="userSpaceOnUse">
<stop stop-color="white"/>
<stop offset="0.999426" stop-color="#DCF1FF"/>
</linearGradient>
</defs>
</svg>
