<svg width="511" height="212" viewBox="0 0 511 212" fill="none" xmlns="http://www.w3.org/2000/svg">
<path d="M134.323 140.163H157.684V171.408H134.323V208.201H100.45V171.408H0V140.163L70.3736 3.79609H106.874L36.5008 140.163H100.45V87.018H134.323V140.163Z" fill="url(#paint0_linear)"/>
<path d="M313.638 183.088C299.622 202.361 279.96 211.997 254.652 211.997C229.54 211.997 209.781 202.361 195.375 183.088C181.359 163.816 174.351 138.119 174.351 105.998C174.351 73.8777 181.359 48.1811 195.375 28.9087C209.781 9.63622 229.54 0 254.652 0C279.96 0 299.622 9.63622 313.638 28.9087C327.849 47.9864 334.954 73.683 334.954 105.998C334.954 138.314 327.849 164.01 313.638 183.088ZM254.652 179.292C269.837 179.292 281.42 172.965 289.401 160.312C297.383 147.658 301.374 129.554 301.374 105.998C301.374 82.4432 297.383 64.3388 289.401 51.6852C281.42 39.0316 269.837 32.7047 254.652 32.7047C239.663 32.7047 228.08 39.0316 219.904 51.6852C211.922 64.3388 207.931 82.4432 207.931 105.998C207.931 129.554 211.922 147.658 219.904 160.312C228.08 172.965 239.663 179.292 254.652 179.292Z" fill="url(#paint1_linear)"/>
<path d="M487.639 140.163H511V171.408H487.639V208.201H453.767V171.408H353.316V140.163L423.69 3.79609H460.191L389.817 140.163H453.767V87.018H487.639V140.163Z" fill="url(#paint2_linear)"/>
<defs>
<linearGradient id="paint0_linear" x1="0" y1="0" x2="0" y2="211.997" gradientUnits="userSpaceOnUse">
<stop stop-color="#28B120"/>
<stop offset="1" stop-color="#84DB80"/>
</linearGradient>
<linearGradient id="paint1_linear" x1="0" y1="0" x2="0" y2="211.997" gradientUnits="userSpaceOnUse">
<stop stop-color="#28B120"/>
<stop offset="1" stop-color="#84DB80"/>
</linearGradient>
<linearGradient id="paint2_linear" x1="0" y1="0" x2="0" y2="211.997" gradientUnits="userSpaceOnUse">
<stop stop-color="#28B120"/>
<stop offset="1" stop-color="#84DB80"/>
</linearGradient>
</defs>
</svg>
