<svg width="40" height="40" viewBox="0 0 40 40" fill="none" xmlns="http://www.w3.org/2000/svg">
<path d="M0 20.1117C0 30.055 7.22167 38.3233 16.6667 40H23.3333C32.7783 38.3233 40 30.0567 40 20.1117C40 9.05 31 0 20 0C9 0 0 9.05 0 20.1117Z" fill="#84DB80" fill-opacity="0.3"/>
<path d="M18.613 28V20.3789H16V17.4481H18.613V15.1029C18.613 12.465 20.2966 11 22.6779 11C23.4322 11 24.2457 11.117 25 11.2339V13.9308H23.6648C22.387 13.9308 22.097 14.5753 22.097 15.3966V17.4481H24.8842L24.4199 20.3789H22.097V28H18.613Z" fill="#84DB80"/>
</svg>
