<svg width="16" height="16" viewBox="0 0 16 16" fill="none" xmlns="http://www.w3.org/2000/svg">
<path d="M7.17288 3.88059V3.83059H7.12288H5.5558C5.45628 3.83059 5.39976 3.71596 5.46161 3.63571C5.46166 3.63564 5.46171 3.63558 5.46176 3.63552L7.83644 0.631129L7.83659 0.630939C7.84778 0.616639 7.86208 0.605074 7.8784 0.597121C7.89472 0.589168 7.91265 0.585034 7.9308 0.585034C7.94896 0.585034 7.96688 0.589168 7.98321 0.597121C7.99953 0.605074 8.01383 0.616639 8.02502 0.630941L8.02516 0.631115L10.4001 3.638C10.4612 3.71543 10.4062 3.83059 10.3058 3.83059H8.73449H8.68449V3.88059V11.0544C8.68449 11.1201 8.63053 11.174 8.56485 11.174H7.29252C7.22683 11.174 7.17288 11.1201 7.17288 11.0544V3.88059ZM14.25 13.9035H14.3V13.8535V10.5878C14.3 10.5222 14.354 10.4682 14.4196 10.4682H15.692C15.7577 10.4682 15.8116 10.5222 15.8116 10.5878V14.7865C15.8116 15.1342 15.5308 15.4151 15.183 15.4151H0.678571C0.330851 15.4151 0.05 15.1342 0.05 14.7865V10.5878C0.05 10.5222 0.103954 10.4682 0.169643 10.4682H1.44196C1.50765 10.4682 1.56161 10.5222 1.56161 10.5878V13.8535V13.9035H1.61161H14.25Z" fill="#6B6B6B" stroke="#F9F7F4" stroke-width="0.1"/>
</svg>
