<svg width="12" height="14" viewBox="0 0 12 14" fill="none" xmlns="http://www.w3.org/2000/svg">
<path d="M10.1766 2.07455C8.7047 0.602673 6.30783 0.602673 4.83751 2.07455L0.75939 6.14955C0.732827 6.17611 0.718764 6.21205 0.718764 6.24955C0.718764 6.28705 0.732827 6.32299 0.75939 6.34955L1.33595 6.92611C1.36231 6.95235 1.39798 6.96708 1.43517 6.96708C1.47236 6.96708 1.50804 6.95235 1.53439 6.92611L5.61251 2.85111C6.11876 2.34486 6.7922 2.06674 7.50783 2.06674C8.22345 2.06674 8.89689 2.34486 9.40158 2.85111C9.90783 3.35736 10.186 4.0308 10.186 4.74486C10.186 5.46049 9.90783 6.13236 9.40158 6.63861L5.24533 10.7933L4.57189 11.4667C3.9422 12.0964 2.91876 12.0964 2.28908 11.4667C1.98439 11.162 1.8172 10.7574 1.8172 10.3261C1.8172 9.89486 1.98439 9.49017 2.28908 9.18549L6.41251 5.06361C6.5172 4.96049 6.6547 4.90267 6.80158 4.90267H6.80314C6.95001 4.90267 7.08595 4.96049 7.18908 5.06361C7.29376 5.1683 7.35001 5.3058 7.35001 5.45267C7.35001 5.59799 7.2922 5.73549 7.18908 5.83861L3.81876 9.2058C3.7922 9.23236 3.77814 9.2683 3.77814 9.3058C3.77814 9.3433 3.7922 9.37924 3.81876 9.4058L4.39533 9.98236C4.42168 10.0086 4.45736 10.0233 4.49455 10.0233C4.53173 10.0233 4.56741 10.0086 4.59376 9.98236L7.96251 6.61361C8.27345 6.30267 8.44376 5.89017 8.44376 5.45111C8.44376 5.01205 8.27189 4.59799 7.96251 4.28861C7.32033 3.64642 6.27658 3.64799 5.63439 4.28861L5.23439 4.69017L1.51251 8.41049C1.25991 8.66161 1.05967 8.96039 0.923413 9.28949C0.787158 9.6186 0.717597 9.97148 0.718764 10.3277C0.718764 11.0511 1.00158 11.7308 1.51251 12.2417C2.0422 12.7699 2.73595 13.0339 3.4297 13.0339C4.12345 13.0339 4.8172 12.7699 5.34533 12.2417L10.1766 7.41361C10.8875 6.70111 11.2813 5.75267 11.2813 4.74486C11.2828 3.73549 10.8891 2.78705 10.1766 2.07455Z" fill="black" fill-opacity="0.45"/>
</svg>
