<svg width="40" height="40" viewBox="0 0 40 40" fill="none" xmlns="http://www.w3.org/2000/svg">
<rect width="40" height="40" rx="20" fill="#84DB80" fill-opacity="0.3"/>
<path d="M29.1904 16.2041C29.1801 15.426 29.0344 14.6557 28.76 13.9275C28.522 13.3134 28.1585 12.7556 27.6928 12.2898C27.227 11.8241 26.6692 11.4606 26.055 11.2226C25.3363 10.9528 24.5769 10.8069 23.8093 10.7911C22.821 10.7469 22.5077 10.7346 19.999 10.7346C17.4903 10.7346 17.1687 10.7346 16.1876 10.7911C15.4204 10.807 14.6614 10.9529 13.9429 11.2226C13.3286 11.4604 12.7708 11.8238 12.305 12.2896C11.8392 12.7554 11.4758 13.3133 11.238 13.9275C10.9676 14.6458 10.822 15.4049 10.8075 16.1722C10.7634 17.1615 10.75 17.4749 10.75 19.9836C10.75 22.4923 10.75 22.8128 10.8075 23.795C10.8229 24.5634 10.9678 25.3216 11.238 26.0417C11.4762 26.6558 11.8399 27.2134 12.3058 27.679C12.7717 28.1446 13.3297 28.5079 13.9439 28.7456C14.6604 29.0263 15.4196 29.1826 16.1886 29.2079C17.1779 29.2521 17.4913 29.2654 20 29.2654C22.5087 29.2654 22.8303 29.2654 23.8114 29.2079C24.5789 29.1928 25.3383 29.0472 26.0571 28.7775C26.6711 28.5392 27.2288 28.1756 27.6945 27.7099C28.1602 27.2442 28.5238 26.6865 28.762 26.0725C29.0322 25.3534 29.1771 24.5952 29.1925 23.8258C29.2366 22.8375 29.25 22.5242 29.25 20.0144C29.2479 17.5057 29.2479 17.1872 29.1904 16.2041ZM19.9928 24.7278C17.369 24.7278 15.2435 22.6022 15.2435 19.9785C15.2435 17.3547 17.369 15.2291 19.9928 15.2291C21.2524 15.2291 22.4604 15.7295 23.3511 16.6202C24.2417 17.5109 24.7421 18.7189 24.7421 19.9785C24.7421 21.2381 24.2417 22.4461 23.3511 23.3367C22.4604 24.2274 21.2524 24.7278 19.9928 24.7278ZM24.9311 16.1609C24.3178 16.1609 23.8237 15.6658 23.8237 15.0535C23.8237 14.9081 23.8523 14.7642 23.908 14.6299C23.9636 14.4956 24.0451 14.3735 24.1479 14.2708C24.2507 14.168 24.3727 14.0864 24.507 14.0308C24.6413 13.9752 24.7853 13.9465 24.9306 13.9465C25.076 13.9465 25.2199 13.9752 25.3542 14.0308C25.4885 14.0864 25.6106 14.168 25.7134 14.2708C25.8161 14.3735 25.8977 14.4956 25.9533 14.6299C26.0089 14.7642 26.0376 14.9081 26.0376 15.0535C26.0376 15.6658 25.5424 16.1609 24.9311 16.1609Z" fill="#84DB80"/>
<path d="M19.9913 23.0635C21.6951 23.0635 23.0763 21.6823 23.0763 19.9785C23.0763 18.2747 21.6951 16.8934 19.9913 16.8934C18.2875 16.8934 16.9062 18.2747 16.9062 19.9785C16.9062 21.6823 18.2875 23.0635 19.9913 23.0635Z" fill="#84DB80"/>
</svg>
