<svg width="25" height="26" viewBox="0 0 25 26" fill="none" xmlns="http://www.w3.org/2000/svg">
<path d="M24.9195 8.34087C24.9055 7.28942 24.7086 6.24843 24.3378 5.26446C24.0162 4.43448 23.525 3.68071 22.8956 3.05132C22.2662 2.42192 21.5125 1.93073 20.6825 1.60914C19.7112 1.24452 18.685 1.04736 17.6477 1.02606C16.3122 0.966366 15.8888 0.949707 12.4986 0.949707C9.10845 0.949707 8.67392 0.949707 7.34812 1.02606C6.3113 1.04752 5.28563 1.24467 4.31475 1.60914C3.48464 1.93051 2.73076 2.42161 2.10133 3.05104C1.47191 3.68047 0.980799 4.43435 0.659429 5.26446C0.294079 6.23504 0.09735 7.26095 0.0777432 8.29783C0.0180475 9.63474 0 10.0582 0 13.4483C0 16.8385 -1.03434e-08 17.2716 0.0777432 18.5988C0.0985673 19.6372 0.294313 20.6618 0.659429 21.635C0.981338 22.4648 1.47281 23.2184 2.10245 23.8476C2.73209 24.4767 3.48604 24.9676 4.31614 25.2889C5.28436 25.6682 6.31021 25.8794 7.34951 25.9136C8.68642 25.9733 9.10984 25.9914 12.5 25.9914C15.8902 25.9914 16.3247 25.9914 17.6505 25.9136C18.6877 25.8932 19.714 25.6965 20.6853 25.3319C21.515 25.01 22.2686 24.5186 22.8979 23.8893C23.5273 23.2599 24.0186 22.5064 24.3406 21.6766C24.7057 20.7048 24.9014 19.6803 24.9223 18.6405C24.982 17.3049 25 16.8815 25 13.49C24.9972 10.0998 24.9972 9.66944 24.9195 8.34087ZM12.4903 19.8594C8.94464 19.8594 6.0723 16.987 6.0723 13.4414C6.0723 9.89573 8.94464 7.0234 12.4903 7.0234C14.1924 7.0234 15.8249 7.69958 17.0285 8.90318C18.2321 10.1068 18.9083 11.7392 18.9083 13.4414C18.9083 15.1435 18.2321 16.776 17.0285 17.9796C15.8249 19.1832 14.1924 19.8594 12.4903 19.8594ZM19.1637 8.28256C18.3349 8.28256 17.6671 7.61341 17.6671 6.786C17.6671 6.58956 17.7058 6.39505 17.781 6.21356C17.8562 6.03207 17.9664 5.86717 18.1053 5.72827C18.2442 5.58936 18.4091 5.47918 18.5906 5.40401C18.7721 5.32883 18.9666 5.29014 19.163 5.29014C19.3595 5.29014 19.554 5.32883 19.7355 5.40401C19.9169 5.47918 20.0818 5.58936 20.2207 5.72827C20.3597 5.86717 20.4698 6.03207 20.545 6.21356C20.6202 6.39505 20.6589 6.58956 20.6589 6.786C20.6589 7.61341 19.9897 8.28256 19.1637 8.28256Z" fill="black"/>
<path d="M12.4903 17.6104C14.7927 17.6104 16.6592 15.7439 16.6592 13.4414C16.6592 11.139 14.7927 9.27246 12.4903 9.27246C10.1878 9.27246 8.32129 11.139 8.32129 13.4414C8.32129 15.7439 10.1878 17.6104 12.4903 17.6104Z" fill="black"/>
</svg>
