<svg width="214" height="92" viewBox="0 0 214 92" fill="none" xmlns="http://www.w3.org/2000/svg">
<path d="M167.954 20.8232C150.815 14.0476 131.226 10.7242 112.486 10.5012C89.607 10.2305 66.7863 14.4849 45.272 21.1014C37.7741 23.4072 30.2811 25.9327 23.2334 29.1728C20.0643 30.6299 16.9482 32.2223 14.0714 34.0962C13.7815 34.2867 13.4977 34.501 13.214 34.7164C12.7267 36.2374 11.6202 37.662 11.2488 39.275C10.6592 41.846 10.7381 44.2796 11.3179 46.5767C12.5836 45.57 13.6889 44.7061 13.6976 44.7299C17.9116 58.1252 31.21 65.6889 45.3868 70.1663C51.9607 72.2415 58.8085 73.8805 65.7489 75.2434C73.0087 75.8615 80.2525 75.4761 86.7808 73.4756C87.769 73.1725 84.0323 77.4485 83.7214 77.7711C83.6104 77.8869 83.4945 78.0114 83.3748 78.1403C86.7228 78.5982 90.061 79.0225 93.3683 79.4079C114.815 81.901 136.887 82.3838 158.259 79.0777C169.02 77.4117 179.791 74.819 189.711 70.7422C191.73 69.9119 193.707 69.0015 195.617 67.9936C196.28 67.6429 198.948 65.5579 200.635 64.5685C200.974 64.0012 201.365 63.4394 201.632 62.8581C202.618 60.719 203.206 58.4294 203.266 56.1171C203.703 39.5175 183.235 26.8648 167.954 20.8232ZM186.852 77.717C167.664 88.4677 142.38 91.5096 120.075 91.9502C98.4866 92.3789 76.7848 90.0146 55.6887 85.8793C46.8116 85.2136 37.9184 83.0463 30.1972 80.4201C16.7681 75.8529 -0.984949 66.49 0.0426554 51.8216C0.558308 44.4495 6.60304 38.4534 12.0112 33.2615C17.9116 27.6009 24.5522 22.8832 32.245 19.2253C50.8566 10.3734 72.4486 5.04302 93.2302 2.01516C116.489 -1.37318 139.952 -0.579679 162.662 5.08849C182.015 9.91985 205.313 19.851 212.606 37.7064C219.199 53.8449 201.035 69.7701 186.852 77.717Z" fill="#84DB80"/>
</svg>
