<svg width="10" height="11" viewBox="0 0 10 11" fill="none" xmlns="http://www.w3.org/2000/svg">
<path d="M2.96736 1.47206H2.86914C2.92316 1.47206 2.96736 1.42787 2.96736 1.37385V1.47206H6.6995V1.37385C6.6995 1.42787 6.7437 1.47206 6.79771 1.47206H6.6995V2.35599H7.58343V1.37385C7.58343 0.940479 7.23108 0.588135 6.79771 0.588135H2.86914C2.43577 0.588135 2.08343 0.940479 2.08343 1.37385V2.35599H2.96736V1.47206ZM9.15486 2.35599H0.511998C0.294699 2.35599 0.119141 2.53155 0.119141 2.74885V3.14171C0.119141 3.19572 0.163337 3.23992 0.217355 3.23992H0.958873L1.26211 9.66068C1.28175 10.0793 1.62796 10.4096 2.0466 10.4096H7.62026C8.04012 10.4096 8.3851 10.0805 8.40475 9.66068L8.70798 3.23992H9.4495C9.50352 3.23992 9.54771 3.19572 9.54771 3.14171V2.74885C9.54771 2.53155 9.37216 2.35599 9.15486 2.35599ZM7.52573 9.52564H2.14113L1.84403 3.23992H7.82282L7.52573 9.52564Z" fill="black" fill-opacity="0.45"/>
</svg>
