<svg width="25" height="25" viewBox="0 0 25 25" fill="none" xmlns="http://www.w3.org/2000/svg">
<path d="M12.5 0.949707C5.59635 0.949707 0 6.32221 0 12.9497C0 19.5772 5.59635 24.9497 12.5 24.9497C19.4036 24.9497 25 19.5772 25 12.9497C25 6.32221 19.4036 0.949707 12.5 0.949707ZM17.3073 14.4885C17.3073 14.4885 18.4128 15.536 18.6849 16.0222C18.6927 16.0322 18.6966 16.0422 18.6992 16.0472C18.8099 16.226 18.8359 16.3647 18.7812 16.4685C18.6901 16.641 18.3776 16.726 18.2708 16.7335H16.3177C16.1823 16.7335 15.8984 16.6997 15.5547 16.4722C15.2904 16.2947 15.0299 16.0035 14.776 15.7197C14.3971 15.2972 14.069 14.9322 13.7383 14.9322C13.6963 14.9321 13.6545 14.9385 13.6146 14.951C13.3646 15.0285 13.0443 15.371 13.0443 16.2835C13.0443 16.5685 12.8099 16.7322 12.6445 16.7322H11.75C11.4453 16.7322 9.85807 16.6297 8.45182 15.206C6.73047 13.4622 5.18099 9.96471 5.16797 9.93221C5.07031 9.70596 5.27213 9.58471 5.49219 9.58471H7.46484C7.72786 9.58471 7.8138 9.73846 7.8737 9.87471C7.94401 10.0335 8.20182 10.6647 8.625 11.3747C9.3112 12.5322 9.73177 13.0022 10.069 13.0022C10.1322 13.0015 10.1944 12.9861 10.25 12.9572C10.6901 12.7222 10.6081 11.216 10.5885 10.9035C10.5885 10.8447 10.5872 10.2297 10.362 9.93471C10.2005 9.72096 9.92578 9.63971 9.75911 9.60971C9.82657 9.52035 9.91545 9.44789 10.0182 9.39846C10.3203 9.25346 10.8646 9.23221 11.4049 9.23221H11.7057C12.2917 9.23971 12.4427 9.27596 12.6549 9.32721C13.0846 9.42596 13.0938 9.69221 13.056 10.6035C13.0443 10.8622 13.0326 11.1547 13.0326 11.4997C13.0326 11.5747 13.0286 11.6547 13.0286 11.7397C13.0156 12.2035 13 12.7297 13.3411 12.946C13.3856 12.9727 13.4371 12.987 13.4896 12.9872C13.6081 12.9872 13.9648 12.9872 14.931 11.396C15.229 10.8838 15.4879 10.3516 15.7057 9.80346C15.7253 9.77096 15.7826 9.67096 15.8503 9.63221C15.9002 9.60775 15.9556 9.59531 16.0117 9.59596H18.3307C18.5833 9.59596 18.7565 9.63221 18.7891 9.72596C18.8464 9.87471 18.7786 10.3285 17.7201 11.7047L17.2474 12.3035C16.2878 13.511 16.2878 13.5722 17.3073 14.4885Z" fill="black"/>
</svg>
