<svg width="40" height="40" viewBox="0 0 40 40" fill="none" xmlns="http://www.w3.org/2000/svg">
<path d="M20 0.800049C8.95417 0.800049 0 9.39605 0 20C0 30.604 8.95417 39.2001 20 39.2001C31.0458 39.2001 40 30.604 40 20C40 9.39605 31.0458 0.800049 20 0.800049Z" fill="#84DB80" fill-opacity="0.3"/>
<path d="M27.1321 22.3064C27.1321 22.3064 28.5072 23.5632 28.8458 24.1466C28.8555 24.1586 28.8603 24.1706 28.8636 24.1766C29.0013 24.3911 29.0337 24.5576 28.9656 24.6821C28.8522 24.889 28.4635 24.991 28.3307 25H25.9011C25.7327 25 25.3796 24.9595 24.952 24.6866C24.6238 24.474 24.3004 24.1255 23.9852 23.7856L23.9834 23.7837C23.512 23.2768 23.1039 22.8389 22.6924 22.8389C22.6402 22.8388 22.5883 22.8464 22.5386 22.8614C22.2276 22.9543 21.8291 23.3653 21.8291 24.4601C21.8291 24.802 21.5376 24.9985 21.3319 24.9985H20.2191C19.8401 24.9985 17.8657 24.8755 16.1164 23.1673C13.9751 21.0752 12.0476 16.8789 12.0314 16.8399C11.91 16.5684 12.161 16.4229 12.4347 16.4229H14.8886C15.2158 16.4229 15.3227 16.6074 15.3972 16.7709C15.4847 16.9613 15.8054 17.7187 16.3318 18.5706C17.1854 19.9593 17.7086 20.5232 18.1281 20.5232C18.2067 20.5224 18.284 20.5039 18.3532 20.4693C18.9007 20.1873 18.7986 18.3801 18.7743 18.0052C18.7743 17.9347 18.7727 17.1968 18.4925 16.8429C18.2917 16.5864 17.9499 16.4889 17.7426 16.4529C17.8265 16.3457 17.937 16.2588 18.0649 16.1995C18.4407 16.0255 19.1177 16 19.7899 16H20.1641C20.8929 16.009 21.0808 16.0525 21.3448 16.114C21.8793 16.2325 21.8907 16.5519 21.8437 17.6452C21.8291 17.9557 21.8146 18.3066 21.8146 18.7205C21.8146 18.8105 21.8097 18.9065 21.8097 19.0085L21.8096 19.0126C21.7934 19.568 21.7751 20.1969 22.1984 20.4558C22.2538 20.4879 22.3177 20.505 22.3831 20.5052C22.5305 20.5052 22.9743 20.5052 24.1761 18.5961C24.5468 17.9816 24.8688 17.343 25.1398 16.6854C25.1641 16.6464 25.2354 16.5264 25.3196 16.4799C25.3818 16.4506 25.4507 16.4357 25.5205 16.4364H28.4052C28.7194 16.4364 28.9348 16.4799 28.9753 16.5924C29.0466 16.7709 28.9624 17.3153 27.6456 18.9665L27.0576 19.6849C25.8639 21.1336 25.8639 21.2071 27.1321 22.3064Z" fill="#84DB80"/>
</svg>
